<?xml version="1.0" encoding="UTF-8" standalone="no"?><svg xmlns="http://www.w3.org/2000/svg" width="99.24" height="52.6" viewBox="0 0 99.24 52.6">
  <defs>
    <style>
      .a, .b {
        fill: #e9be49;
        stroke-miterlimit: 10;
      }

      .a {
        stroke: #075874;
        stroke-width: 3px;
      }

      .b {
        stroke: #e9be49;
      }

      .c {
        fill: #b01c1a;
      }

      .d {
        fill: #075874;
      }
    </style>
  </defs>
  <g>
    <g>
      <path class="a" d="M49.19,6.61a17.24,17.24,0,0,0-6.3,1.85l-.6.32-.5.3-.2.14a18,18,0,0,0-5.36,5.09,17.82,17.82,0,0,0-3,7.51,19,19,0,0,0,.16,6.33A17.5,17.5,0,0,0,35,32.72a17.19,17.19,0,0,0,3.23,4.43,14.16,14.16,0,0,0,1.93,1.73,17.71,17.71,0,0,0,7.14,3.29,12.53,12.53,0,0,0,3.78.33A12.63,12.63,0,0,0,55,42.14a18.11,18.11,0,0,0,7.47-3.63,26.87,26.87,0,0,0,2.44-2.38l.53-.7a16.34,16.34,0,0,0,2.6-4.77,16.75,16.75,0,0,0,1-6.14,16,16,0,0,0-.42-4,18.16,18.16,0,0,0-.62-2.16,10,10,0,0,0-.68-1.59,18.08,18.08,0,0,0-7.28-7.88l-.57-.32c-.2-.11-.63-.33-1-.48l-.71-.33a.67.67,0,0,0-.19-.06,1,1,0,0,1-.26-.09c-.19-.08-.48-.18-1.23-.42A19.48,19.48,0,0,0,49.19,6.61ZM52.88,7c.39,0,.83.09,1,.12l1,.2A12.9,12.9,0,0,1,57,8l.78.3c.44.17,1.56.73,2.07,1a5.4,5.4,0,0,0,.48.27c.12.06,1,.66,1.46,1a21.23,21.23,0,0,1,2.7,2.57A14.37,14.37,0,0,1,65.87,15c.2.31.42.65.49.74l.11.2a1.92,1.92,0,0,0,.18.34,22.55,22.55,0,0,1,.93,2.06,16.72,16.72,0,0,1,.7,2.42c0,.26.14.69.2.95a21.94,21.94,0,0,1,.16,4A15.44,15.44,0,0,1,68,29.55,17.2,17.2,0,0,1,65.91,34,16.58,16.58,0,0,1,64.47,36a19.94,19.94,0,0,1-3.09,2.85c-.37.28-1.52,1-1.94,1.23s-1.62.77-1.67.77l-.23.09a21.9,21.9,0,0,1-2.32.75c-.64.14-.94.19-1.86.35a23.85,23.85,0,0,1-4.55,0,23.43,23.43,0,0,1-3-.69c-.48-.16-.93-.33-1.13-.41l-.23-.09s-.35-.14-.72-.32-.68-.31-.7-.31-1.57-.92-2-1.21l-.6-.43a21.73,21.73,0,0,1-3.07-3,17.47,17.47,0,0,1-3.76-9,20.55,20.55,0,0,1,0-3.92c.17-1.14.23-1.43.32-1.88.06-.24.13-.56.16-.71a16.87,16.87,0,0,1,2-4.64,16.07,16.07,0,0,1,3.41-4.06l.58-.51A17.53,17.53,0,0,1,42,9.5l.54-.32a19.81,19.81,0,0,1,3.63-1.54,14.74,14.74,0,0,1,1.62-.39c.16,0,.4-.07.54-.11A24.32,24.32,0,0,1,52.88,7Z"/>
      <path class="b" d="M49.44,9.07a17.86,17.86,0,0,0-2,.32c-.7.19-1.62.48-2,.64s-.54.23-1.29.56a15.82,15.82,0,0,0-4.13,3,15.62,15.62,0,0,0-4.35,8.63,14.12,14.12,0,0,0-.17,2.31,15.13,15.13,0,0,0,1.07,5.69A21.43,21.43,0,0,0,38,33.06a16.07,16.07,0,0,0,6.17,5.46,12.82,12.82,0,0,0,2.88,1.08,15.91,15.91,0,0,0,8,0l.75-.22a4,4,0,0,0,.63-.2L57,39a21.56,21.56,0,0,0,2.28-1.17A17.56,17.56,0,0,0,63,34.61a16.71,16.71,0,0,0,1.27-1.71,1.58,1.58,0,0,1,.19-.3c0-.05.27-.5.52-1a14.86,14.86,0,0,0,1.48-4.37c.06-.3.15-1.19.22-2.14a17.1,17.1,0,0,0-.34-3.87,15.8,15.8,0,0,0-2.76-6,20.13,20.13,0,0,0-2.89-3,15.72,15.72,0,0,0-3.12-1.91l-.45-.19A16.83,16.83,0,0,0,54,9.24,17.27,17.27,0,0,0,49.44,9.07Zm3.82.48a21.79,21.79,0,0,1,2.16.48,12.58,12.58,0,0,1,2,.77.54.54,0,0,0,0,.12c0,.06-.09.15-.38.32s-.55.31-.72.42l-.6.36a4.59,4.59,0,0,0-.47.27l-.27.15L54.1,13,53,13.63c-.36.2-.3.16-2.41,1.38L47.64,16.7,45.4,18c-.54.33-1,.59-1,.59s-.25.13-.51.28c-.6.36-.78.41-.86.26s-.08-7.08,0-7.29a6,6,0,0,1,2-1.18,19.22,19.22,0,0,1,2.49-.84c.94-.19,1.58-.31,2-.36A21.58,21.58,0,0,1,53.26,9.55Zm5.31,1.81a16,16,0,0,1,5.18,4.87A15.88,15.88,0,0,1,66,21.81c.18,1,.2,1.22.14,1.38s0,.22-1.08-.42l-1-.58c-.46-.25-2.12-1.2-2.43-1.4s-.47-.29-.67-.39l-1.47-.85-2.16-1.24L55,17c-.7-.42-1.29-.76-1.31-.76s-2-1.16-2-1.2a.55.55,0,0,1,.08-.14c.07-.09,1.5-.93,2.53-1.5.3-.16,1.08-.61,1.74-1l1.3-.75a1.83,1.83,0,0,0,.27-.16C58,11.15,58.19,11.14,58.57,11.36Zm-16,1.11c.07.52.05,16.24,0,16.32s-.18.07-1-.41l-1-.56c-.19-.1-1.55-.9-3-1.75l-.76-.44c-.85-.49-.82-.45-.82-1.21a15.72,15.72,0,0,1,.87-4.93,20.81,20.81,0,0,1,1.26-2.69,16.92,16.92,0,0,1,2.23-2.87,9.61,9.61,0,0,1,2.15-1.75A.53.53,0,0,1,42.54,12.47Zm9.94,4.08.52.11a8.71,8.71,0,0,1,2.23.93,8.31,8.31,0,0,1,3.53,4.34,8.75,8.75,0,0,1,.2,4.63,3.13,3.13,0,0,1-.15.48,1.44,1.44,0,0,0-.09.26,10.13,10.13,0,0,1-.93,1.82A8.44,8.44,0,0,1,54.3,32a7,7,0,0,1-3,.64A6.94,6.94,0,0,1,48,32.05a8,8,0,0,1-2.49-1.59A8.31,8.31,0,0,1,43.1,26a8.81,8.81,0,0,1,.19-3.66,8.29,8.29,0,0,1,4.29-5.06,7.82,7.82,0,0,1,2.55-.76A12.81,12.81,0,0,1,52.48,16.55Zm9,4.61c4,2.3,4.69,2.73,4.75,2.82a4.87,4.87,0,0,1,0,1.75,14.83,14.83,0,0,1-1,4.34,20.58,20.58,0,0,1-1.32,2.6A15.76,15.76,0,0,1,60,36.79c-.31.21-.38.15-.38-.33,0-2.27,0-16.07,0-16.12a.18.18,0,0,1,.13-.06A18.18,18.18,0,0,1,61.43,21.16ZM37.59,26.61l1.61.93a3.38,3.38,0,0,1,.33.19c.22.14,1.87,1.08,1.89,1.08s.55.31,1.2.69,1.57.92,2.06,1.19l2.84,1.64,2.31,1.34c.47.25.72.45.67.54a18.41,18.41,0,0,1-1.72,1l-.66.39c-.44.27-.76.45-1.5.85-.28.15-.69.39-.9.52l-.72.44-.62.35a.61.61,0,0,1-.42.11,10.08,10.08,0,0,1-1.5-.91l-.53-.38a16.92,16.92,0,0,1-3.28-3.39,16.84,16.84,0,0,1-.92-1.5s-.18-.38-.39-.82a17.33,17.33,0,0,1-.93-2.55c-.39-1.55-.48-2.55-.24-2.55C36.2,25.81,36.84,26.17,37.59,26.61ZM59.1,29.9c.09.09.1,7.27,0,7.44a8.87,8.87,0,0,1-2.28,1.25l-.75.29a15,15,0,0,1-2.94.7,31,31,0,0,1-3.85,0,16.25,16.25,0,0,1-3.9-1,1.32,1.32,0,0,0-.29-.12,1.49,1.49,0,0,1-.25-.13c-.21-.12-.21-.13-.12-.24s2.06-1.27,2.78-1.66c.26-.14,3.08-1.77,3.25-1.88l.38-.22.45-.26.8-.45.75-.43a1.36,1.36,0,0,1,.27-.15l.3-.18c.14-.09.25-.16.9-.52l1.62-.94c.74-.44,1.47-.85,1.62-.94s.46-.26.69-.39C59,29.8,59,29.81,59.1,29.9Z"/>
      <path class="c" d="M50.35,17.89A6.83,6.83,0,0,0,47.42,19a6.69,6.69,0,0,0-2.72,3.94,9.16,9.16,0,0,0,0,3.09,6.65,6.65,0,0,0,4.91,4.91,8.19,8.19,0,0,0,3.12,0,7.46,7.46,0,0,0,3.32-2,7.63,7.63,0,0,0,1.37-2.3,9.12,9.12,0,0,0,.37-2.17,6.17,6.17,0,0,0-.62-2.68L57,21.65l-.26.26a2,2,0,0,1-1.53.6,1.62,1.62,0,0,1-.93-.2,2.34,2.34,0,0,1-1-1,1.69,1.69,0,0,1-.15-.92,1.8,1.8,0,0,1,.52-1.47c.31-.38.28-.47-.2-.66A7.83,7.83,0,0,0,50.35,17.89Zm-.57,7.63a1.34,1.34,0,0,1,.56,1.21,1.07,1.07,0,0,1-.22.7A1.17,1.17,0,0,1,49,28a1,1,0,0,1-.74-.18,1.4,1.4,0,0,1-.07-2.3,1.1,1.1,0,0,1,.93-.22A1.15,1.15,0,0,1,49.78,25.52Z"/>
    </g>
    <path class="d" d="M98.9,28.7a51.11,51.11,0,0,0-4.71-8.11A49.4,49.4,0,0,0,75.53,5.43,43.47,43.47,0,0,0,69,2.87,65.9,65.9,0,0,0,45.76.1,65.34,65.34,0,0,0,35,1.54c-2,.5-3.7,1-4.06,1.08S29.85,3,29,3.25a66.16,66.16,0,0,0-9,4.1l0,0a4.93,4.93,0,0,1-.66.42l-.22.08a48.78,48.78,0,0,0-14,12.71A48.08,48.08,0,0,0,.35,28.7c-.44,1.08-.44,1.17-.14,1.74C1,31.94,6.94,37,11.78,40.31A70.24,70.24,0,0,0,40.22,52a50.1,50.1,0,0,0,9.4.65A47.28,47.28,0,0,0,59,52,72.26,72.26,0,0,0,89.1,39.2C93,36.39,98.4,31.67,99,30.44,99.33,29.87,99.33,29.78,98.9,28.7Zm-6.53,3.11A77.73,77.73,0,0,1,73.84,43.68c-3.5,1.55-7.71,3.06-8.06,2.89a14.36,14.36,0,0,1-2.58.77c-.64.13-1.29.23-1.93.31s-1.44.35-2.17.47a24.58,24.58,0,0,1-3.44.33,25.87,25.87,0,0,1-6.33.3,32.9,32.9,0,0,1-6.78-.55c-.37,0-.73,0-1.1,0a17.75,17.75,0,0,1-4.67-.87,8,8,0,0,1-2.92-.62c-.08,0-.14-.1-.22-.15h0l.1.07L33,46.47a52.86,52.86,0,0,1-7.4-2.7A77.43,77.43,0,0,1,6.4,31.38L4.84,30l.57-.43a68,68,0,0,1,9.48-5.26,12.78,12.78,0,0,0,1.78-.92,18.82,18.82,0,0,1,2.67-1.13l2.87-1.08c.3-.12.47-.12.54,0a1.25,1.25,0,0,1,.12-.08,1.21,1.21,0,0,1,.41-.16l0,0,0,0,.13,0,.74-.23.26-.08,1.34-.43c.14-.06.3-.09.45-.14l.21-.08a1.5,1.5,0,0,1,.41-.23,4.93,4.93,0,0,1,.83-.18,2.82,2.82,0,0,1,.58-.24,5.73,5.73,0,0,1,1.47-.23l.13,0,.14,0a.83.83,0,0,1,.35-.14,14.77,14.77,0,0,0,1.74-.44.89.89,0,0,1,.56,0A10.41,10.41,0,0,1,35,17.91c.28-.07,1.12-.22,1.87-.32l2.37-.36a16.07,16.07,0,0,1,1.84-.18l.83,0h0a14.6,14.6,0,0,1,2.87-.26c.41,0,.82,0,1.23,0v0a30.48,30.48,0,0,1,3.76-.12h3.62v0h.19l.25.05h.12a.92.92,0,0,1,.51-.09c1.17.11,2.34.19,3.51.33.33,0,1.21.09,2,.2s2.2.34,3.13.5l1.24.21a20.39,20.39,0,0,1,3.77.79c.4.08.8.18,1.19.29a5.55,5.55,0,0,1,1.52.28,3.15,3.15,0,0,1,.63.23c.46.11.92.24,1.37.38a19.16,19.16,0,0,1,3,.91l.93.24a1,1,0,0,1,.37.17q.64.19,1.89.66c1.38.54,3.56,1.48,3.66,1.58a7.75,7.75,0,0,0,1.29.67,71.73,71.73,0,0,1,9.57,5.24l.91.63Z"/>
  </g>
</svg>
